<?xml version="1.0" standalone="yes"?>
<svg xmlns="http://www.w3.org/2000/svg" width="500" height="500">
<path style="fill:#4b0561; stroke:none;" d="M0 0L0 500L500 500L500 0L0 0z"/>
<path style="fill:#8e6093; stroke:none;" d="M247 158L244 162L247 158z"/>
<path style="fill:#b9a2c5; stroke:none;" d="M248 158L248 159L251 159L248 158z"/>
<path style="fill:#8e6093; stroke:none;" d="M251 158L251 159L255 161L251 158z"/>
<path style="fill:#f3bc36; stroke:none;" d="M247.212 160.043C238.467 164.909 240.307 181.664 229.985 185.062C222.245 187.611 213.863 174.488 209 170.059C206.768 168.025 202.5 164.534 200.042 168.323C196.915 173.144 202.72 186.74 203.961 192C205.771 199.679 205.746 213.113 212.214 218.486C216.807 222.302 224.457 221 230 221L269 221C274.461 221 282.046 222.214 286.867 219.062C295.255 213.576 296.813 188.361 298.612 179C299.29 175.471 302.431 168.054 296.938 166.752C286.67 164.316 282.019 188.603 270.004 185.012C262.565 182.79 259.503 171.163 256.243 165.015C254.471 161.672 251.517 157.648 247.212 160.043z"/>
<path style="fill:#b9a2c5; stroke:none;" d="M252 159L253 160L252 159M254 161L255 162L254 161M244 162L245 163L244 162z"/>
<path style="fill:#8e6093; stroke:none;" d="M255 162L256 163L255 162M243.333 163.667L243.667 164.333L243.333 163.667z"/>
<path style="fill:#b9a2c5; stroke:none;" d="M255 163L256 164L255 163z"/>
<path style="fill:#8e6093; stroke:none;" d="M256.333 164.667L256.667 165.333L256.333 164.667M202.667 165.333L203.333 165.667L202.667 165.333M242 165L243 166L242 165M295.667 165.333L296.333 165.667L295.667 165.333M200 166L201 167L200 166z"/>
<path style="fill:#b9a2c5; stroke:none;" d="M205 166L206 167L205 166M242 166L243 167L242 166z"/>
<path style="fill:#8e6093; stroke:none;" d="M257 166L258 167L257 166M293 166L294 167L293 166z"/>
<path style="fill:#b9a2c5; stroke:none;" d="M298 166L300 168L298 166z"/>
<path style="fill:#8e6093; stroke:none;" d="M299 166L300 167L299 166M199 167L200 168L199 167z"/>
<path style="fill:#b9a2c5; stroke:none;" d="M206 167L207 168L206 167z"/>
<path style="fill:#8e6093; stroke:none;" d="M241 167L242 168L241 167z"/>
<path style="fill:#b9a2c5; stroke:none;" d="M257 167L258 168L257 167z"/>
<path style="fill:#8e6093; stroke:none;" d="M292 167L293 168L292 167z"/>
<path style="fill:#b9a2c5; stroke:none;" d="M207 168L208 169L207 168M241 168L242 169L241 168z"/>
<path style="fill:#8e6093; stroke:none;" d="M291 168L292 169L291 168M300 168L301 169L300 168z"/>
<path style="fill:#b9a2c5; stroke:none;" d="M208 169L209 170L208 169z"/>
<path style="fill:#8e6093; stroke:none;" d="M240.333 169.667L240.667 170.333L240.333 169.667M258 169L259 170L258 169M290 169L291 170L290 169M198 170L199 171L198 170z"/>
<path style="fill:#b9a2c5; stroke:none;" d="M209 170L210 171L209 170z"/>
<path style="fill:#8e6093; stroke:none;" d="M259.333 170.667L259.667 171.333L259.333 170.667M289 170L290 171L289 170z"/>
<path style="fill:#b9a2c5; stroke:none;" d="M210 171L211 172L210 171z"/>
<path style="fill:#8e6093; stroke:none;" d="M239 171L240 172L239 171M288 171L287 173L288 171z"/>
<path style="fill:#b9a2c5; stroke:none;" d="M300 171L301 172L300 171z"/>
<path style="fill:#8e6093; stroke:none;" d="M211 172L212 173L211 172z"/>
<path style="fill:#b9a2c5; stroke:none;" d="M239 172L240 173L239 172z"/>
<path style="fill:#8e6093; stroke:none;" d="M260 172L261 173L260 172z"/>
<path style="fill:#b9a2c5; stroke:none;" d="M288 172L289 173L288 172z"/>
<path style="fill:#8e6093; stroke:none;" d="M300.333 172.667L300.667 173.333L300.333 172.667z"/>
<path style="fill:#b9a2c5; stroke:none;" d="M199 173L200 174L199 173M212 173L213 174L212 173M260 173L261 174L260 173z"/>
<path style="fill:#8e6093; stroke:none;" d="M199 174L200 175L199 174M213 174L214 175L213 174M238 174L239 175L238 174z"/>
<path style="fill:#b9a2c5; stroke:none;" d="M286 174L287 175L286 174M299 174L299 177L300 177L299 174z"/>
<path style="fill:#8e6093; stroke:none;" d="M214 175L215 176L214 175M237.333 175.667L237.667 176.333L237.333 175.667M261 175L262 176L261 175z"/>
<path style="fill:#b9a2c5; stroke:none;" d="M285 175L286 176L285 175M200.333 176.667L200.667 177.333L200.333 176.667z"/>
<path style="fill:#8e6093; stroke:none;" d="M215 176L216 177L215 176M262.333 176.667L262.667 177.333L262.333 176.667z"/>
<path style="fill:#b9a2c5; stroke:none;" d="M284 176L285 177L284 176z"/>
<path style="fill:#8e6093; stroke:none;" d="M216 177L217 178L216 177z"/>
<path style="fill:#b9a2c5; stroke:none;" d="M283 177L284 178L283 177z"/>
<path style="fill:#8e6093; stroke:none;" d="M299.333 177.667L299.667 178.333L299.333 177.667M200 178L200 181L201 181L200 178M217 178L218 179L217 178M236 178L237 179L236 178M263 178L264 179L263 178z"/>
<path style="fill:#b9a2c5; stroke:none;" d="M282 178L283 179L282 178z"/>
<path style="fill:#8e6093; stroke:none;" d="M218 179L219 180L218 179z"/>
<path style="fill:#b9a2c5; stroke:none;" d="M263 179L264 180L263 179M281 179L282 180L281 179M298 179L299 180L298 179z"/>
<path style="fill:#8e6093; stroke:none;" d="M219 180L220 181L219 180M235 180L236 181L235 180M264.333 180.667L264.667 181.333L264.333 180.667M280 180L281 181L280 180M298 180L298 183L299 183L298 180z"/>
<path style="fill:#b9a2c5; stroke:none;" d="M201 181L202 182L201 181z"/>
<path style="fill:#8e6093; stroke:none;" d="M220 181L221 182L220 181M234 181L235 182L234 181M279 181L280 182L279 181M201.333 182.667L201.667 183.333L201.333 182.667M221 182L222 183L221 182z"/>
<path style="fill:#b9a2c5; stroke:none;" d="M234 182L235 183L234 182z"/>
<path style="fill:#8e6093; stroke:none;" d="M265 182L266 183L265 182M278 182L279 183L278 182M222 183L223 184L222 183M233 183L234 184L233 183M266 183L267 184L266 183M277 183L278 184L277 183M223 184L224 185L223 184M231 184L232 185L231 184z"/>
<path style="fill:#b9a2c5; stroke:none;" d="M232 184L233 185L232 184z"/>
<path style="fill:#8e6093; stroke:none;" d="M267 184L268 185L267 184M275 184L276 185L275 184z"/>
<path style="fill:#b9a2c5; stroke:none;" d="M276 184L277 185L276 184M225.667 185.333L226.333 185.667L225.667 185.333z"/>
<path style="fill:#8e6093; stroke:none;" d="M227.667 185.333L228.333 185.667L227.667 185.333z"/>
<path style="fill:#b9a2c5; stroke:none;" d="M229 185L230 186L229 185M270 185L271 186L270 185z"/>
<path style="fill:#8e6093; stroke:none;" d="M271.667 185.333L272.333 185.667L271.667 185.333z"/>
<path style="fill:#b9a2c5; stroke:none;" d="M273 185L274 186L273 185M297 185L298 186L297 185z"/>
<path style="fill:#8e6093; stroke:none;" d="M297 186L298 187L297 186M202.333 187.667L202.667 188.333L202.333 187.667z"/>
<path style="fill:#b9a2c5; stroke:none;" d="M296 188L297 189L296 188M203.333 189.667L203.667 190.333L203.333 189.667z"/>
<path style="fill:#8e6093; stroke:none;" d="M296 189L296 193L297 193L296 189M203 191L203 194L204 194L203 191M295 193L295 196L296 196L295 193z"/>
<path style="fill:#b9a2c5; stroke:none;" d="M204 194L205 195L204 194z"/>
<path style="fill:#8e6093; stroke:none;" d="M204.333 195.667L204.667 196.333L204.333 195.667z"/>
<path style="fill:#b9a2c5; stroke:none;" d="M294 198L295 199L294 198z"/>
<path style="fill:#8e6093; stroke:none;" d="M294.333 199.667L294.667 200.333L294.333 199.667z"/>
<path style="fill:#b9a2c5; stroke:none;" d="M205 200L206 201L205 200z"/>
<path style="fill:#8e6093; stroke:none;" d="M205.333 201.667L205.667 202.333L205.333 201.667z"/>
<path style="fill:#b9a2c5; stroke:none;" d="M293 201L294 202L293 201z"/>
<path style="fill:#8e6093; stroke:none;" d="M293 202L293 206L294 206L293 202z"/>
<path style="fill:#b9a2c5; stroke:none;" d="M206 203L207 204L206 203z"/>
<path style="fill:#8e6093; stroke:none;" d="M206 204L206 208L207 208L206 204z"/>
<path style="fill:#b9a2c5; stroke:none;" d="M292 206L293 207L292 206z"/>
<path style="fill:#8e6093; stroke:none;" d="M292.333 207.667L292.667 208.333L292.333 207.667z"/>
<path style="fill:#b9a2c5; stroke:none;" d="M207 208L208 209L207 208z"/>
<path style="fill:#8e6093; stroke:none;" d="M207.333 209.667L207.667 210.333L207.333 209.667z"/>
<path style="fill:#b9a2c5; stroke:none;" d="M291.333 210.667L291.667 211.333L291.333 210.667z"/>
<path style="fill:#8e6093; stroke:none;" d="M291.333 212.667L291.667 213.333L291.333 212.667z"/>
<path style="fill:#b9a2c5; stroke:none;" d="M208 213L209 214L208 213z"/>
<path style="fill:#8e6093; stroke:none;" d="M208 214L209 215L208 214M290.333 214.667L290.667 215.333L290.333 214.667z"/>
<path style="fill:#b9a2c5; stroke:none;" d="M209 215L210 216L209 215z"/>
<path style="fill:#8e6093; stroke:none;" d="M209 216L210 217L209 216z"/>
<path style="fill:#b9a2c5; stroke:none;" d="M210 217L211 218L210 217z"/>
<path style="fill:#8e6093; stroke:none;" d="M289 217L290 218L289 217z"/>
<path style="fill:#b9a2c5; stroke:none;" d="M211 218L212 219L211 218z"/>
<path style="fill:#8e6093; stroke:none;" d="M288 218L289 219L288 218M212 219L213 220L212 219M287 219L288 220L287 219M213 220L214 221L213 220z"/>
<path style="fill:#b9a2c5; stroke:none;" d="M214.667 220.333L215.333 220.667L214.667 220.333M283.667 220.333L284.333 220.667L283.667 220.333z"/>
<path style="fill:#8e6093; stroke:none;" d="M285.667 220.333L286.333 220.667L285.667 220.333M222 221L222 222L227 222L222 221M255 221L255 222L261 222L255 221M206 230L206 231L226 231L206 230z"/>
<path style="fill:#b9a2c5; stroke:none;" d="M226.667 230.333L227.333 230.667L226.667 230.333z"/>
<path style="fill:#8e6093; stroke:none;" d="M228 230L228 231L296 231L275 230L228 230M186.667 231.333L187.333 231.667L186.667 231.333z"/>
<path style="fill:#b9a2c5; stroke:none;" d="M188 231L188 232L192 232L188 231z"/>
<path style="fill:#f4f6fc; stroke:none;" d="M192 231.424C187.159 232.068 182.568 232.594 178 234.454C154.411 244.057 159.754 264.78 157.83 285C156.207 302.055 154.905 323.712 170.004 335.471C181.85 344.697 198.958 342 213 342C246.391 342 281.849 346.898 315 341.56C346.624 336.468 343 301.91 343 278C343 264.4 342.44 248.931 330.961 239.681C319.303 230.286 302.141 231 288 231C256.768 231 222.944 227.312 192 231.424z"/>
<path style="fill:#b9a2c5; stroke:none;" d="M304 231L304 232L309 232L304 231z"/>
<path style="fill:#8e6093; stroke:none;" d="M309 231L309 232L312 232L309 231M182 232L183 233L182 232z"/>
<path style="fill:#b9a2c5; stroke:none;" d="M183 232L184 233L183 232M314.667 232.333L315.333 232.667L314.667 232.333z"/>
<path style="fill:#8e6093; stroke:none;" d="M316 232L317 233L316 232M179 233L180 234L179 233z"/>
<path style="fill:#b9a2c5; stroke:none;" d="M180 233L181 234L180 233M318 233L319 234L318 233z"/>
<path style="fill:#8e6093; stroke:none;" d="M319.667 233.333L320.333 233.667L319.667 233.333M176 234L177 235L176 234z"/>
<path style="fill:#b9a2c5; stroke:none;" d="M177 234L178 235L177 234M321 234L322 235L321 234z"/>
<path style="fill:#8e6093; stroke:none;" d="M322 234L323 235L322 234M174 235L175 236L174 235z"/>
<path style="fill:#b9a2c5; stroke:none;" d="M175 235L176 236L175 235M324 235L325 236L324 235z"/>
<path style="fill:#8e6093; stroke:none;" d="M172 236L173 237L172 236z"/>
<path style="fill:#b9a2c5; stroke:none;" d="M173 236L174 237L173 236M326 236L327 237L326 236M171 237L172 238L171 237z"/>
<path style="fill:#8e6093; stroke:none;" d="M328 237L329 238L328 237M169 238L170 239L169 238z"/>
<path style="fill:#b9a2c5; stroke:none;" d="M170 238L171 239L170 238M329 238L330 239L329 238z"/>
<path style="fill:#8e6093; stroke:none;" d="M168 239L169 240L168 239z"/>
<path style="fill:#b9a2c5; stroke:none;" d="M330 239L331 240L330 239z"/>
<path style="fill:#8e6093; stroke:none;" d="M331 239L332 240L331 239M167 240L168 241L167 240M332 240L333 241L332 240M166 241L167 242L166 241M333 241L334 242L333 241M165 242L166 243L165 242M334 242L335 243L334 242M164 243L165 244L164 243M335 243L336 244L335 243M163 244L164 245L163 244z"/>
<path style="fill:#b9a2c5; stroke:none;" d="M335 244L336 245L335 244M163 245L164 246L163 245M336 245L337 246L336 245M162 246L163 247L162 246z"/>
<path style="fill:#8e6093; stroke:none;" d="M337 246L338 247L337 246M161 247L162 248L161 247z"/>
<path style="fill:#b9a2c5; stroke:none;" d="M161 248L162 249L161 248M338 248L339 249L338 248z"/>
<path style="fill:#8e6093; stroke:none;" d="M160 249L161 250L160 249z"/>
<path style="fill:#b9a2c5; stroke:none;" d="M160 250L161 251L160 250M339 250L340 251L339 250z"/>
<path style="fill:#8e6093; stroke:none;" d="M159 252L160 253L159 252M340 252L341 253L340 252z"/>
<path style="fill:#b9a2c5; stroke:none;" d="M159 253L160 254L159 253M340 253L341 254L340 253z"/>
<path style="fill:#8e6093; stroke:none;" d="M158.333 254.667L158.667 255.333L158.333 254.667M341.333 254.667L341.667 255.333L341.333 254.667z"/>
<path style="fill:#b9a2c5; stroke:none;" d="M158.333 256.667L158.667 257.333L158.333 256.667M341.333 256.667L341.667 257.333L341.333 256.667z"/>
<path style="fill:#8e6093; stroke:none;" d="M342 259L342 263L343 263L342 259M157 260L157 263L158 263L157 260z"/>
<path style="fill:#b9a2c5; stroke:none;" d="M196 261L196 262C206.608 262 213.99 260.305 214 273C219.689 259.442 204.652 261 196 261M291 261L291 262L294 262L291 261M194 262L191 276L192 276L194 262z"/>
<path style="fill:#8e6093; stroke:none;" d="M194 263L194 264L214 264C209.277 260.422 199.491 261.377 194 263z"/>
<path style="fill:#b9a2c5; stroke:none;" d="M289 262L290 263L289 262z"/>
<path style="fill:#8e6093; stroke:none;" d="M286 268L287 268C289.288 264.084 291.568 263.185 296 264C291.562 260.694 287.706 263.255 286 268z"/>
<path style="fill:#b9a2c5; stroke:none;" d="M295 262L296 263L295 262M157 263L157 267L158 267L157 263z"/>
<path style="fill:#4b0561; stroke:none;" d="M195.603 264.028C192.562 266.437 194.906 271.704 192.397 274.682C189.697 277.886 185.439 275.943 182.318 278.028C178.947 280.279 178.38 293.419 181.603 295.972C184.431 298.212 188.755 296.137 191.682 298.603C194.91 301.323 193.086 305.41 194.603 308.772C196.64 313.284 208.069 313.232 211.682 310.821C215.54 308.247 212.818 302.623 215.603 299.318C218.531 295.843 223.256 298.46 226.397 295.972C229.25 293.712 229.254 280.443 226.397 278.179C223.823 276.141 219.943 277.628 217.148 275.972C212.891 273.449 215.184 268.946 213.397 265.318C211.621 261.715 198.472 261.756 195.603 264.028z"/>
<path style="fill:#b9a2c5; stroke:none;" d="M287 263L288 264L287 263z"/>
<path style="fill:#4b0561; stroke:none;" d="M290.213 263.758C284 266.365 287.565 276.272 293.942 274.199C300.873 271.947 297.331 260.77 290.213 263.758z"/>
<path style="fill:#b9a2c5; stroke:none;" d="M296 263L299 271L300 271L296 263M342 263L342 267L343 267L342 263M286 265L287 266L286 265z"/>
<path style="fill:#8e6093; stroke:none;" d="M297 265L298 266L297 265z"/>
<path style="fill:#b9a2c5; stroke:none;" d="M285 266L286 273L287 273L285 266z"/>
<path style="fill:#8e6093; stroke:none;" d="M298 266C297.625 270.966 295.711 273.379 291 275L291 276C296.141 274.959 300.222 271.515 298 266z"/>
<path style="fill:#b9a2c5; stroke:none;" d="M157 270L157 288L158 288L157 270z"/>
<path style="fill:#8e6093; stroke:none;" d="M286.333 270.667L286.667 271.333L286.333 270.667M343 271L343 308L344 308C344 297.351 347.111 280.798 343 271M287 272L290 275L287 272z"/>
<path style="fill:#b9a2c5; stroke:none;" d="M298 272L299 273L298 272z"/>
<path style="fill:#8e6093; stroke:none;" d="M193.333 273.667L193.667 274.333L193.333 273.667M214 273C216.791 278.062 222.832 277.04 228 278L228 277L214 273z"/>
<path style="fill:#b9a2c5; stroke:none;" d="M297 273L298 274L297 273M215 274L216 275L215 274M287.667 274.333L288.333 274.667L287.667 274.333M296 274L297 275L296 274z"/>
<path style="fill:#8e6093; stroke:none;" d="M192 275L193 276L192 275z"/>
<path style="fill:#b9a2c5; stroke:none;" d="M216 275L217 276L216 275M289.667 275.333L290.333 275.667L289.667 275.333M294.667 275.333L295.333 275.667L294.667 275.333M180 276C176.926 282.388 176.926 291.612 180 298L181 298C178.685 291.649 176.984 282.354 182 277L180 276z"/>
<path style="fill:#8e6093; stroke:none;" d="M182 276L182 277L192 277L182 276z"/>
<path style="fill:#b9a2c5; stroke:none;" d="M226.667 276.333L227.333 276.667L226.667 276.333z"/>
<path style="fill:#8e6093; stroke:none;" d="M180 277L180 279L182 277L180 277z"/>
<path style="fill:#b9a2c5; stroke:none;" d="M228 277L229 295L230 295L228 277z"/>
<path style="fill:#8e6093; stroke:none;" d="M179 279L179 295L180 295L179 279M228 279L226.972 294.682L216.318 298.028L214 309L215 309C215.01 295.772 220.844 302.949 227.397 296.397C230.589 293.204 229.588 282.784 228 279z"/>
<path style="fill:#b9a2c5; stroke:none;" d="M268 284L273 281L268 284z"/>
<path style="fill:#8e6093; stroke:none;" d="M273 280L273 281L276 281L273 280z"/>
<path style="fill:#b9a2c5; stroke:none;" d="M276 280L276 281L281 284L276 280M304 284L309 281L304 284z"/>
<path style="fill:#8e6093; stroke:none;" d="M309 280L309 281L312 281L309 280z"/>
<path style="fill:#b9a2c5; stroke:none;" d="M312 280L312 281L317 284L312 280z"/>
<path style="fill:#8e6093; stroke:none;" d="M271 281C267.913 285.295 266.854 289.994 272 293L271 281z"/>
<path style="fill:#4b0561; stroke:none;" d="M272.148 282.047C266.26 285.24 270.661 295.183 276.89 291.953C283.339 288.61 278.303 278.71 272.148 282.047z"/>
<path style="fill:#8e6093; stroke:none;" d="M277 281L278 282L277 281M307 281C303.913 285.295 302.854 289.994 308 293L307 281z"/>
<path style="fill:#4b0561; stroke:none;" d="M308.148 282.047C302.28 285.23 306.705 295.288 312.852 291.953C318.72 288.77 314.295 278.712 308.148 282.047z"/>
<path style="fill:#8e6093; stroke:none;" d="M313 281L314 282L313 281M278 282L279 283L278 282M314 282L315 283L314 282M279 283L280 284L279 283M315 283L316 284L315 283M280.333 284.667L280.667 285.333L280.333 284.667M316 284L313 293C316.07 290.443 317.569 287.895 316 284z"/>
<path style="fill:#b9a2c5; stroke:none;" d="M267 285L267 289L268 289L267 285M281 285L281 289L282 289L281 285M303 285L303 289L304 289L303 285M317 285L317 289L318 289L317 285z"/>
<path style="fill:#8e6093; stroke:none;" d="M156 287L156 297L157 297L156 287M280 288L277 293L280 288z"/>
<path style="fill:#b9a2c5; stroke:none;" d="M268 290L269 291L268 290M280 290L281 291L280 290M304.333 290.667L304.667 291.333L304.333 290.667M316 290L317 291L316 290M279.333 291.667L279.667 292.333L279.333 291.667M315 291L316 292L315 291M305 292L306 293L305 292M314 292L315 293L314 292M271 293L271 294L278 294L278 293L271 293z"/>
<path style="fill:#8e6093; stroke:none;" d="M273 293L273 294L276 294L273 293z"/>
<path style="fill:#b9a2c5; stroke:none;" d="M307 293L307 294L314 294L314 293L307 293z"/>
<path style="fill:#8e6093; stroke:none;" d="M309 293L309 294L312 294L309 293M180 296L181 297L180 296z"/>
<path style="fill:#b9a2c5; stroke:none;" d="M228 296L229 297L228 296z"/>
<path style="fill:#8e6093; stroke:none;" d="M181 297L181 298L193 301C193.126 295.668 184.734 297 181 297z"/>
<path style="fill:#b9a2c5; stroke:none;" d="M227 297L228 298L227 297M190.667 298.333L191.333 298.667L190.667 298.333M216.667 298.333L217.333 298.667L216.667 298.333M290 298L290 299L295 299L290 298M192.333 299.667L192.667 300.333L192.333 299.667M215.333 299.667L215.667 300.333L215.333 299.667M288 299L286 302L288 299z"/>
<path style="fill:#8e6093; stroke:none;" d="M286 304L287 304C290.405 299.916 293.278 300.016 298 302C293.806 297.718 288.665 298.715 286 304z"/>
<path style="fill:#b9a2c5; stroke:none;" d="M296 299L297 300L296 299z"/>
<path style="fill:#4b0561; stroke:none;" d="M289.232 301.029C283.07 304.809 289.945 313.549 295.682 309.817C301.517 306.022 295.165 297.389 289.232 301.029z"/>
<path style="fill:#b9a2c5; stroke:none;" d="M297 300L298 301L297 300M193 301C193.002 315.168 201.124 313 213 313L213 312C208.502 312 197.893 313.97 195.028 309.682C193.394 307.237 194.129 303.69 193 301M298 301C298.713 305.418 298.428 307.964 295 311L295 312C299.562 309.606 300.973 305.378 298 301M285 303C285.236 307.316 286.071 309.938 290 312L290 311L285 303z"/>
<path style="fill:#8e6093; stroke:none;" d="M298 303L298 308L299 308L298 303M286.333 306.667L286.667 307.333L286.333 306.667M287.333 308.667L287.667 309.333L287.333 308.667z"/>
<path style="fill:#b9a2c5; stroke:none;" d="M214 309L214 312L215 312L214 309z"/>
<path style="fill:#8e6093; stroke:none;" d="M297 309L298 310L297 309z"/>
<path style="fill:#b9a2c5; stroke:none;" d="M157 310L157 313L158 313L157 310z"/>
<path style="fill:#8e6093; stroke:none;" d="M194 310L195 311L194 310M213 310L211 311L211 312L213 310M288.667 310.333L289.333 310.667L288.667 310.333M295.667 310.333L296.333 310.667L295.667 310.333M195.667 311.333L196.333 311.667L195.667 311.333M290 311L290 312L295 312L290 311z"/>
<path style="fill:#b9a2c5; stroke:none;" d="M342 311L342 314L343 314L342 311M291 312L291 313L294 313L291 312z"/>
<path style="fill:#8e6093; stroke:none;" d="M157.333 313.667L157.667 314.333L157.333 313.667M342.333 314.667L342.667 315.333L342.333 314.667z"/>
<path style="fill:#b9a2c5; stroke:none;" d="M158.333 316.667L158.667 317.333L158.333 316.667M341 317L342 318L341 317z"/>
<path style="fill:#8e6093; stroke:none;" d="M158 318L159 319L158 318M341.333 318.667L341.667 319.333L341.333 318.667z"/>
<path style="fill:#b9a2c5; stroke:none;" d="M159 320L160 321L159 320M340 320L341 321L340 320z"/>
<path style="fill:#8e6093; stroke:none;" d="M159 321L160 322L159 321M340 321L341 322L340 321z"/>
<path style="fill:#b9a2c5; stroke:none;" d="M160 323L161 324L160 323M339 323L340 324L339 323M161 325L162 326L161 325z"/>
<path style="fill:#8e6093; stroke:none;" d="M338 325L339 326L338 325z"/>
<path style="fill:#b9a2c5; stroke:none;" d="M337 326L338 327L337 326M162 327L163 328L162 327z"/>
<path style="fill:#8e6093; stroke:none;" d="M337 327L338 328L337 327z"/>
<path style="fill:#b9a2c5; stroke:none;" d="M163 328L164 329L163 328M336 328L337 329L336 328z"/>
<path style="fill:#8e6093; stroke:none;" d="M163 329L164 330L163 329z"/>
<path style="fill:#b9a2c5; stroke:none;" d="M335 329L336 330L335 329z"/>
<path style="fill:#8e6093; stroke:none;" d="M164 330L165 331L164 330z"/>
<path style="fill:#b9a2c5; stroke:none;" d="M334 330L335 331L334 330z"/>
<path style="fill:#8e6093; stroke:none;" d="M165 331L166 332L165 331z"/>
<path style="fill:#b9a2c5; stroke:none;" d="M166 332L167 333L166 332z"/>
<path style="fill:#8e6093; stroke:none;" d="M333 332L334 333L333 332M167 333L168 334L167 333M332 333L333 334L332 333M168 334L169 335L168 334z"/>
<path style="fill:#b9a2c5; stroke:none;" d="M330 334L331 335L330 334z"/>
<path style="fill:#8e6093; stroke:none;" d="M169 335L170 336L169 335z"/>
<path style="fill:#b9a2c5; stroke:none;" d="M329 335L330 336L329 335z"/>
<path style="fill:#8e6093; stroke:none;" d="M170 336L171 337L170 336z"/>
<path style="fill:#b9a2c5; stroke:none;" d="M171 336L172 337L171 336M328 336L329 337L328 336z"/>
<path style="fill:#8e6093; stroke:none;" d="M172 337L173 338L172 337z"/>
<path style="fill:#b9a2c5; stroke:none;" d="M326 337L327 338L326 337z"/>
<path style="fill:#8e6093; stroke:none;" d="M327 337L328 338L327 337z"/>
<path style="fill:#b9a2c5; stroke:none;" d="M174 338L175 339L174 338M324 338L325 339L324 338z"/>
<path style="fill:#8e6093; stroke:none;" d="M325 338L326 339L325 338M175 339L176 340L175 339z"/>
<path style="fill:#b9a2c5; stroke:none;" d="M176 339L177 340L176 339M322 339L323 340L322 339z"/>
<path style="fill:#8e6093; stroke:none;" d="M323 339L324 340L323 339M177 340L178 341L177 340z"/>
<path style="fill:#b9a2c5; stroke:none;" d="M178.667 340.333L179.333 340.667L178.667 340.333M320 340L321 341L320 340z"/>
<path style="fill:#8e6093; stroke:none;" d="M321 340L322 341L321 340M180.667 341.333L181.333 341.667L180.667 341.333z"/>
<path style="fill:#b9a2c5; stroke:none;" d="M182 341L182 342L185 342L182 341M315 341L315 342L318 342L315 341z"/>
<path style="fill:#8e6093; stroke:none;" d="M318 341L319 342L318 341M185 342L185 343L193 343L185 342z"/>
<path style="fill:#b9a2c5; stroke:none;" d="M193 342L193 343L236 343C224.774 338.29 205.219 342 193 342M299 342L299 343L312 343L299 342z"/>
<path style="fill:#8e6093; stroke:none;" d="M312 342L312 343L315 343L312 342M238 343L238 344L304 344L283 343L238 343z"/>
</svg>
